<svg xmlns="http://www.w3.org/2000/svg" xmlns:xlink="http://www.w3.org/1999/xlink" xmlns:s="https://github.com/nturley/netlistsvg" width="505" height="524.5">
  <style>svg {
    stroke:#000;
    fill:none;
  }
  text {
    fill:#000;
    stroke:none;
    font-size:10px;
    font-weight: bold;
    font-family: "Courier New", monospace;
  }
  .nodelabel {
    text-anchor: middle;
  }
  .inputPortLabel {
    text-anchor: end;
  }
  .splitjoinBody {
    fill:#000;
  }</style>
  <g s:type="dff" transform="translate(453,386.5)" s:width="30" s:height="40" id="cell_$procdff$47">
    <s:alias val="$dff"/>
    <s:alias val="$_DFF_"/>
    <s:alias val="$_DFF_P_"/>
    <rect width="30" height="40" x="0" y="0" class="cell_$procdff$47"/>
    <path d="M0,35 L5,30 L0,25" class="cell_$procdff$47"/>
    <g s:x="30" s:y="10" s:pid="Q"/>
    <g s:x="0" s:y="30" s:pid="CLK"/>
    <g s:x="0" s:y="30" s:pid="C"/>
    <g s:x="0" s:y="10" s:pid="D"/>
  </g>
  <g s:type="dff" transform="translate(388,304.5)" s:width="30" s:height="40" id="cell_$procdff$48">
    <s:alias val="$dff"/>
    <s:alias val="$_DFF_"/>
    <s:alias val="$_DFF_P_"/>
    <rect width="30" height="40" x="0" y="0" class="cell_$procdff$48"/>
    <path d="M0,35 L5,30 L0,25" class="cell_$procdff$48"/>
    <g s:x="30" s:y="10" s:pid="Q"/>
    <g s:x="0" s:y="30" s:pid="CLK"/>
    <g s:x="0" s:y="30" s:pid="C"/>
    <g s:x="0" s:y="10" s:pid="D"/>
  </g>
  <g s:type="dff" transform="translate(319,158.5)" s:width="30" s:height="40" id="cell_$procdff$49">
    <s:alias val="$dff"/>
    <s:alias val="$_DFF_"/>
    <s:alias val="$_DFF_P_"/>
    <rect width="30" height="40" x="0" y="0" class="cell_$procdff$49"/>
    <path d="M0,35 L5,30 L0,25" class="cell_$procdff$49"/>
    <g s:x="30" s:y="10" s:pid="Q"/>
    <g s:x="0" s:y="30" s:pid="CLK"/>
    <g s:x="0" s:y="30" s:pid="C"/>
    <g s:x="0" s:y="10" s:pid="D"/>
  </g>
  <g s:type="dff" transform="translate(319,83.5)" s:width="30" s:height="40" id="cell_$procdff$50">
    <s:alias val="$dff"/>
    <s:alias val="$_DFF_"/>
    <s:alias val="$_DFF_P_"/>
    <rect width="30" height="40" x="0" y="0" class="cell_$procdff$50"/>
    <path d="M0,35 L5,30 L0,25" class="cell_$procdff$50"/>
    <g s:x="30" s:y="10" s:pid="Q"/>
    <g s:x="0" s:y="30" s:pid="CLK"/>
    <g s:x="0" s:y="30" s:pid="C"/>
    <g s:x="0" s:y="10" s:pid="D"/>
  </g>
  <g s:type="dff" transform="translate(388,22)" s:width="30" s:height="40" id="cell_$procdff$51">
    <s:alias val="$dff"/>
    <s:alias val="$_DFF_"/>
    <s:alias val="$_DFF_P_"/>
    <rect width="30" height="40" x="0" y="0" class="cell_$procdff$51"/>
    <path d="M0,35 L5,30 L0,25" class="cell_$procdff$51"/>
    <g s:x="30" s:y="10" s:pid="Q"/>
    <g s:x="0" s:y="30" s:pid="CLK"/>
    <g s:x="0" s:y="30" s:pid="C"/>
    <g s:x="0" s:y="10" s:pid="D"/>
  </g>
  <g s:type="mux" transform="translate(257,355.5)" s:width="20" s:height="40" id="cell_$procmux$41">
    <s:alias val="$pmux"/>
    <s:alias val="$mux"/>
    <s:alias val="$_MUX_"/>
    <path d="M0,0 L20,10 L20,30 L0,40 Z" class="cell_$procmux$41"/>
    <g s:x="0" s:y="10" s:pid="A"/>
    <g s:x="0" s:y="30" s:pid="B"/>
    <g s:x="10" s:y="35" s:pid="S"/>
    <g s:x="20" s:y="20" s:pid="Y"/>
  </g>
  <g s:type="mux" transform="translate(453,193.5)" s:width="20" s:height="40" id="cell_$procmux$44">
    <s:alias val="$pmux"/>
    <s:alias val="$mux"/>
    <s:alias val="$_MUX_"/>
    <path d="M0,0 L20,10 L20,30 L0,40 Z" class="cell_$procmux$44"/>
    <g s:x="0" s:y="10" s:pid="A"/>
    <g s:x="0" s:y="30" s:pid="B"/>
    <g s:x="10" s:y="35" s:pid="S"/>
    <g s:x="20" s:y="20" s:pid="Y"/>
  </g>
  <g s:type="generic" transform="translate(108,449.5)" s:width="30" s:height="40" id="cell_u_quadra">
    <text x="15" y="-4" class="nodelabel cell_u_quadra" s:attribute="ref">quadra</text>
    <rect width="30" height="60" s:generic="body" class="cell_u_quadra"/>
    <g transform="translate(0,10)" s:x="0" s:y="10" s:pid="in0" id="port_u_quadra~clk">
      <text x="-3" y="-4" class="inputPortLabel cell_u_quadra">clk</text>
    </g>
    <g transform="translate(0,30)" s:x="0" s:y="10" s:pid="in0" id="port_u_quadra~rst_n">
      <text x="-3" y="-4" class="inputPortLabel cell_u_quadra">rst_n</text>
    </g>
    <g transform="translate(0,50)" s:x="0" s:y="10" s:pid="in0" id="port_u_quadra~x">
      <text x="-3" y="-4" class="inputPortLabel cell_u_quadra">x</text>
    </g>
    <g transform="translate(30,10)" s:x="30" s:y="10" s:pid="out0" id="port_u_quadra~y">
      <text x="5" y="-4" style="fill:#000; stroke:none" class="cell_u_quadra">y</text>
    </g>
  </g>
  <g s:type="inputExt" transform="translate(12,324.5)" s:width="30" s:height="20" id="cell_clk">
    <text x="15" y="-4" class="nodelabel cell_clk" s:attribute="ref">clk</text>
    <s:alias val="$_inputExt_"/>
    <path d="M0,0 L0,20 L15,20 L30,10 L15,0 Z" class="cell_clk"/>
    <g s:x="28" s:y="10" s:pid="Y"/>
  </g>
  <g s:type="outputExt" transform="translate(453,304.5)" s:width="30" s:height="20" id="cell_y">
    <text x="15" y="-4" class="nodelabel cell_y" s:attribute="ref">y</text>
    <s:alias val="$_outputExt_"/>
    <path d="M30,0 L30,20 L15,20 L0,10 L15,0 Z" class="cell_y"/>
    <g s:x="0" s:y="10" s:pid="A"/>
  </g>
  <g s:type="inputExt" transform="translate(12,395.5)" s:width="30" s:height="20" id="cell_rst_b">
    <text x="15" y="-4" class="nodelabel cell_rst_b" s:attribute="ref">rst_b</text>
    <s:alias val="$_inputExt_"/>
    <path d="M0,0 L0,20 L15,20 L30,10 L15,0 Z" class="cell_rst_b"/>
    <g s:x="28" s:y="10" s:pid="Y"/>
  </g>
  <g s:type="inputExt" transform="translate(12,490)" s:width="30" s:height="20" id="cell_x">
    <text x="15" y="-4" class="nodelabel cell_x" s:attribute="ref">x</text>
    <s:alias val="$_inputExt_"/>
    <path d="M0,0 L0,20 L15,20 L30,10 L15,0 Z" class="cell_x"/>
    <g s:x="28" s:y="10" s:pid="Y"/>
  </g>
  <g s:type="inputExt" transform="translate(317,243.5)" s:width="30" s:height="20" id="cell_x_dv">
    <text x="15" y="-4" class="nodelabel cell_x_dv" s:attribute="ref">x_dv</text>
    <s:alias val="$_inputExt_"/>
    <path d="M0,0 L0,20 L15,20 L30,10 L15,0 Z" class="cell_x_dv"/>
    <g s:x="28" s:y="10" s:pid="Y"/>
  </g>
  <g s:type="outputExt" transform="translate(453,22)" s:width="30" s:height="20" id="cell_y_dv">
    <text x="15" y="-4" class="nodelabel cell_y_dv" s:attribute="ref">y_dv</text>
    <s:alias val="$_outputExt_"/>
    <path d="M30,0 L30,20 L15,20 L0,10 L15,0 Z" class="cell_y_dv"/>
    <g s:x="0" s:y="10" s:pid="A"/>
  </g>
  <g s:type="constant" transform="translate(191,355.5)" s:width="30" s:height="20" id="cell_00000000000000000000000000000000000000000000000000">
    <text x="15" y="-4" class="nodelabel cell_00000000000000000000000000000000000000000000000000" s:attribute="ref">0x0</text>
    <s:alias val="$_constant_"/>
    <rect width="30" height="20" class="cell_00000000000000000000000000000000000000000000000000"/>
    <g s:x="30" s:y="10" s:pid="Y"/>
  </g>
  <g s:type="constant" transform="translate(388,148)" s:width="30" s:height="20" id="cell_000">
    <text x="15" y="-4" class="nodelabel cell_000" s:attribute="ref">000</text>
    <s:alias val="$_constant_"/>
    <rect width="30" height="20" class="cell_000"/>
    <g s:x="30" s:y="10" s:pid="Y"/>
  </g>
  <g s:type="join" transform="translate(216,429.5)" s:width="4" s:height="40" id="cell_$join$,80,81,82,83,84,85,86,87,88,89,90,91,92,93,94,95,96,97,98,99,100,101,102,103,104,135,136,137,138,139,140,141,142,143,144,145,146,147,148,149,150,151,152,153,154,155,156,157,158,159,">
    <rect width="5" height="40" class="splitjoinBody" s:generic="body"/>
    <s:alias val="$_join_"/>
    <g s:x="5" s:y="20" s:pid="out"/>
    <g transform="translate(0,10)" s:x="0" s:y="10" s:pid="in0">
      <text x="-3" y="-4" class="inputPortLabel">0:24</text>
    </g>
    <g transform="translate(0,30)" s:x="0" s:y="10" s:pid="in0">
      <text x="-3" y="-4" class="inputPortLabel">25:49</text>
    </g>
  </g>
  <g s:type="join" transform="translate(398,203)" s:width="4" s:height="40" id="cell_$join$,133,131,53,">
    <rect width="5" height="60" class="splitjoinBody" s:generic="body"/>
    <s:alias val="$_join_"/>
    <g s:x="5" s:y="20" s:pid="out"/>
    <g transform="translate(0,10)" s:x="0" s:y="10" s:pid="in0">
      <text x="-3" y="-4" class="inputPortLabel">0</text>
    </g>
    <g transform="translate(0,30)" s:x="0" s:y="10" s:pid="in0">
      <text x="-3" y="-4" class="inputPortLabel">1</text>
    </g>
    <g transform="translate(0,50)" s:x="0" s:y="10" s:pid="in0">
      <text x="-3" y="-4" class="inputPortLabel">2</text>
    </g>
  </g>
  <g s:type="split" transform="translate(317,355)" s:width="5" s:height="40" id="cell_$split$,105,106,107,108,109,110,111,112,113,114,115,116,117,118,119,120,121,122,123,124,125,126,127,128,129,55,56,57,58,59,60,61,62,63,64,65,66,67,68,69,70,71,72,73,74,75,76,77,78,79,">
    <rect width="5" height="40" class="splitjoinBody" s:generic="body"/>
    <s:alias val="$_split_"/>
    <g s:x="0" s:y="20" s:pid="in"/>
    <g transform="translate(4,10)" s:x="4" s:y="10" s:pid="out0">
      <text x="5" y="-4">25:49</text>
    </g>
    <g transform="translate(4,30)" s:x="4" s:y="10" s:pid="out0">
      <text x="5" y="-4">0:24</text>
    </g>
  </g>
  <g s:type="split" transform="translate(265,63)" s:width="5" s:height="40" id="cell_$split$,134,132,130,">
    <rect width="5" height="60" class="splitjoinBody" s:generic="body"/>
    <s:alias val="$_split_"/>
    <g s:x="0" s:y="20" s:pid="in"/>
    <g transform="translate(4,10)" s:x="4" s:y="10" s:pid="out0">
      <text x="5" y="-4">2</text>
    </g>
    <g transform="translate(4,30)" s:x="4" s:y="10" s:pid="out0">
      <text x="5" y="-4">1</text>
    </g>
    <g transform="translate(4,50)" s:x="4" s:y="10" s:pid="out0">
      <text x="5" y="-4">0</text>
    </g>
  </g>
  <line x1="40" x2="62" y1="334.5" y2="334.5" class="net_2"/>
  <line x1="62" x2="62" y1="334.5" y2="416.5" class="net_2"/>
  <circle cx="62" cy="334.5" r="2" style="fill:#000" class="net_2"/>
  <circle cx="62" cy="416.5" r="2" style="fill:#000" class="net_2"/>
  <line x1="62" x2="453" y1="416.5" y2="416.5" class="net_2"/>
  <line x1="40" x2="388" y1="334.5" y2="334.5" class="net_2"/>
  <line x1="40" x2="62" y1="334.5" y2="334.5" class="net_2"/>
  <line x1="62" x2="62" y1="334.5" y2="52" class="net_2"/>
  <line x1="62" x2="242" y1="52" y2="52" class="net_2"/>
  <line x1="242" x2="242" y1="52" y2="188.5" class="net_2"/>
  <circle cx="242" cy="52" r="2" style="fill:#000" class="net_2"/>
  <line x1="242" x2="319" y1="188.5" y2="188.5" class="net_2"/>
  <line x1="40" x2="62" y1="334.5" y2="334.5" class="net_2"/>
  <line x1="62" x2="62" y1="334.5" y2="52" class="net_2"/>
  <line x1="62" x2="307" y1="52" y2="52" class="net_2"/>
  <line x1="307" x2="307" y1="52" y2="113.5" class="net_2"/>
  <circle cx="307" cy="52" r="2" style="fill:#000" class="net_2"/>
  <line x1="307" x2="319" y1="113.5" y2="113.5" class="net_2"/>
  <line x1="40" x2="62" y1="334.5" y2="334.5" class="net_2"/>
  <line x1="62" x2="62" y1="334.5" y2="52" class="net_2"/>
  <line x1="62" x2="388" y1="52" y2="52" class="net_2"/>
  <line x1="40" x2="62" y1="334.5" y2="334.5" class="net_2"/>
  <line x1="62" x2="62" y1="334.5" y2="460" class="net_2"/>
  <line x1="62" x2="108" y1="460" y2="460" class="net_2"/>
  <line x1="322" x2="428" y1="365.5" y2="365.5" class="net_55,56,57,58,59,60,61,62,63,64,65,66,67,68,69,70,71,72,73,74,75,76,77,78,79"/>
  <line x1="428" x2="428" y1="365.5" y2="396.5" class="net_55,56,57,58,59,60,61,62,63,64,65,66,67,68,69,70,71,72,73,74,75,76,77,78,79"/>
  <line x1="428" x2="453" y1="396.5" y2="396.5" class="net_55,56,57,58,59,60,61,62,63,64,65,66,67,68,69,70,71,72,73,74,75,76,77,78,79"/>
  <line x1="322" x2="363" y1="385.5" y2="385.5" class="net_105,106,107,108,109,110,111,112,113,114,115,116,117,118,119,120,121,122,123,124,125,126,127,128,129"/>
  <line x1="363" x2="363" y1="385.5" y2="314.5" class="net_105,106,107,108,109,110,111,112,113,114,115,116,117,118,119,120,121,122,123,124,125,126,127,128,129"/>
  <line x1="363" x2="388" y1="314.5" y2="314.5" class="net_105,106,107,108,109,110,111,112,113,114,115,116,117,118,119,120,121,122,123,124,125,126,127,128,129"/>
  <line x1="270" x2="287" y1="73.5" y2="73.5" class="net_130"/>
  <line x1="287" x2="287" y1="73.5" y2="168.5" class="net_130"/>
  <line x1="287" x2="319" y1="168.5" y2="168.5" class="net_130"/>
  <line x1="270" x2="319" y1="93.5" y2="93.5" class="net_132"/>
  <line x1="270" x2="297" y1="113.5" y2="113.5" class="net_134"/>
  <line x1="297" x2="297" y1="113.5" y2="32" class="net_134"/>
  <line x1="297" x2="388" y1="32" y2="32" class="net_134"/>
  <line x1="221" x2="257" y1="365.5" y2="365.5" class="net_160,161,162,163,164,165,166,167,168,169,170,171,172,173,174,175,176,177,178,179,180,181,182,183,184,185,186,187,188,189,190,191,192,193,194,195,196,197,198,199,200,201,202,203,204,205,206,207,208,209"/>
  <line x1="222" x2="232" y1="450" y2="450" class="net_80,81,82,83,84,85,86,87,88,89,90,91,92,93,94,95,96,97,98,99,100,101,102,103,104,135,136,137,138,139,140,141,142,143,144,145,146,147,148,149,150,151,152,153,154,155,156,157,158,159"/>
  <line x1="232" x2="232" y1="450" y2="385.5" class="net_80,81,82,83,84,85,86,87,88,89,90,91,92,93,94,95,96,97,98,99,100,101,102,103,104,135,136,137,138,139,140,141,142,143,144,145,146,147,148,149,150,151,152,153,154,155,156,157,158,159"/>
  <line x1="232" x2="257" y1="385.5" y2="385.5" class="net_80,81,82,83,84,85,86,87,88,89,90,91,92,93,94,95,96,97,98,99,100,101,102,103,104,135,136,137,138,139,140,141,142,143,144,145,146,147,148,149,150,151,152,153,154,155,156,157,158,159"/>
  <line x1="40" x2="267" y1="405.5" y2="405.5" class="net_28"/>
  <line x1="267" x2="267" y1="405.5" y2="390.5" class="net_28"/>
  <line x1="40" x2="52" y1="405.5" y2="405.5" class="net_28"/>
  <line x1="52" x2="52" y1="405.5" y2="284.5" class="net_28"/>
  <line x1="52" x2="463" y1="284.5" y2="284.5" class="net_28"/>
  <circle cx="52" cy="405.5" r="2" style="fill:#000" class="net_28"/>
  <line x1="463" x2="463" y1="284.5" y2="228.5" class="net_28"/>
  <line x1="40" x2="52" y1="405.5" y2="405.5" class="net_28"/>
  <line x1="52" x2="52" y1="405.5" y2="480" class="net_28"/>
  <line x1="52" x2="108" y1="480" y2="480" class="net_28"/>
  <line x1="418" x2="428" y1="158" y2="158" class="net_210,211,212"/>
  <line x1="428" x2="428" y1="158" y2="203.5" class="net_210,211,212"/>
  <line x1="428" x2="453" y1="203.5" y2="203.5" class="net_210,211,212"/>
  <line x1="404" x2="453" y1="223.5" y2="223.5" class="net_133,131,53"/>
  <line x1="40" x2="108" y1="500" y2="500" class="net_29,30,31,32,33,34,35,36,37,38,39,40,41,42,43,44,45,46,47,48,49,50,51,52"/>
  <line x1="418" x2="453" y1="314.5" y2="314.5" class="net_3,4,5,6,7,8,9,10,11,12,13,14,15,16,17,18,19,20,21,22,23,24,25,26,27"/>
  <line x1="418" x2="453" y1="32" y2="32" class="net_54"/>
  <line x1="483" x2="493" y1="396.5" y2="396.5" class="net_80,81,82,83,84,85,86,87,88,89,90,91,92,93,94,95,96,97,98,99,100,101,102,103,104"/>
  <line x1="493" x2="493" y1="396.5" y2="479.5" class="net_80,81,82,83,84,85,86,87,88,89,90,91,92,93,94,95,96,97,98,99,100,101,102,103,104"/>
  <line x1="493" x2="166" y1="479.5" y2="479.5" class="net_80,81,82,83,84,85,86,87,88,89,90,91,92,93,94,95,96,97,98,99,100,101,102,103,104"/>
  <line x1="166" x2="166" y1="479.5" y2="440" class="net_80,81,82,83,84,85,86,87,88,89,90,91,92,93,94,95,96,97,98,99,100,101,102,103,104"/>
  <line x1="166" x2="216" y1="440" y2="440" class="net_80,81,82,83,84,85,86,87,88,89,90,91,92,93,94,95,96,97,98,99,100,101,102,103,104"/>
  <line x1="139" x2="216" y1="460" y2="460" class="net_135,136,137,138,139,140,141,142,143,144,145,146,147,148,149,150,151,152,153,154,155,156,157,158,159"/>
  <line x1="349" x2="373" y1="93.5" y2="93.5" class="net_133"/>
  <line x1="373" x2="373" y1="93.5" y2="213.5" class="net_133"/>
  <line x1="373" x2="398" y1="213.5" y2="213.5" class="net_133"/>
  <line x1="349" x2="363" y1="168.5" y2="168.5" class="net_131"/>
  <line x1="363" x2="363" y1="168.5" y2="233.5" class="net_131"/>
  <line x1="363" x2="398" y1="233.5" y2="233.5" class="net_131"/>
  <line x1="345" x2="398" y1="253.5" y2="253.5" class="net_53"/>
  <line x1="277" x2="317" y1="375.5" y2="375.5" class="net_105,106,107,108,109,110,111,112,113,114,115,116,117,118,119,120,121,122,123,124,125,126,127,128,129,55,56,57,58,59,60,61,62,63,64,65,66,67,68,69,70,71,72,73,74,75,76,77,78,79"/>
  <line x1="473" x2="493" y1="213.5" y2="213.5" class="net_134,132,130"/>
  <line x1="493" x2="493" y1="213.5" y2="273.5" class="net_134,132,130"/>
  <line x1="493" x2="232" y1="273.5" y2="273.5" class="net_134,132,130"/>
  <line x1="232" x2="232" y1="273.5" y2="83.5" class="net_134,132,130"/>
  <line x1="232" x2="265" y1="83.5" y2="83.5" class="net_134,132,130"/>
</svg>
